<svg width="20" height="20" viewBox="0 0 20 20" fill="none" xmlns="http://www.w3.org/2000/svg">
<path d="M9.99976 20C4.47676 20 -0.000244141 15.523 -0.000244141 10C-0.000244141 4.477 4.47676 0 9.99976 0C15.5228 0 19.9998 4.477 19.9998 10C19.9998 15.523 15.5228 20 9.99976 20ZM16.3548 13.952V13.847C16.3548 12.925 16.3548 12.504 15.7028 12.131C15.4932 12.0122 15.2779 11.9037 15.0578 11.806C14.6908 11.639 14.4478 11.53 14.1198 11.05C14.0806 10.993 14.0419 10.9357 14.0038 10.878C13.6588 10.353 13.4098 9.975 12.4618 10.125C10.5968 10.421 10.4588 10.749 10.3768 11.303L10.3638 11.394C10.2428 12.204 10.2208 12.476 10.5588 12.831C11.8238 14.158 12.5818 15.115 12.8118 15.675C12.9238 15.948 13.2118 16.775 13.0138 17.593C14.2276 17.1095 15.308 16.3425 16.1648 15.356C16.2748 14.982 16.3548 14.516 16.3548 13.952ZM9.99976 1.833C7.68276 1.833 5.58976 2.799 4.10376 4.349C4.28076 4.472 4.43476 4.645 4.54076 4.883C4.74476 5.34 4.74476 5.811 4.74476 6.228C4.74476 6.556 4.74476 6.868 4.84976 7.093C4.99376 7.401 5.61576 7.533 6.16476 7.647C6.36176 7.689 6.56376 7.731 6.74776 7.782C7.25376 7.922 7.64576 8.377 7.95876 8.742C8.08876 8.893 8.28176 9.116 8.37876 9.172C8.42876 9.136 8.58976 8.961 8.66876 8.674C8.73076 8.454 8.71276 8.26 8.62376 8.154C8.06376 7.494 8.09476 6.224 8.26776 5.755C8.53976 5.016 9.38976 5.071 10.0118 5.111C10.2438 5.126 10.4618 5.141 10.6258 5.12C11.2478 5.042 11.4398 4.095 11.5748 3.91C11.8668 3.51 12.7608 2.907 13.3148 2.535C12.2713 2.07099 11.1418 1.83181 9.99976 1.833Z" fill="white"/>
</svg>
